<svg version="1.2" xmlns="http://www.w3.org/2000/svg" viewBox="0 0 2048 2048" width="2048" height="2048">
	<title>20250604_1444_Boy with Circular Background_remix_01jwx3fpb3ec7ahe90v81r98jd (1)</title>
	<style>
		.s0 { opacity: .14;fill: #fefffe } 
		.s1 { opacity: .23;fill: #2d3c44 } 
		.s2 { opacity: .45;fill: #fefefe } 
		.s3 { opacity: .78;fill: #fefefe } 
		.s4 { opacity: 1;fill: #45595e } 
		.s5 { opacity: 1;fill: #4b5d62 } 
		.s6 { opacity: 1;fill: #495c61 } 
		.s7 { opacity: 1;fill: #fdfefe } 
		.s8 { opacity: 1;fill: #485b60 } 
		.s9 { opacity: 1;fill: #ffffff } 
		.s10 { opacity: 1;fill: #ced2d2 } 
	</style>
	<g id="Background">
		<path id="Path 0" class="s0" d="m788 168l81-19 95-10-1 2-87 9-87 19zm300-27l-1-2 64 6 86 16 77 22 57 22-1 1-53-20-76-22-84-16zm459 163v-1l67 50 42 38 33 36h-2l-65-65zm-1415 670l9-95 22-96 1 1-22 102-8 87zm1765-138l1-2 9 41 6 52-2-1zm17 127l2-1 2 31-2-1zm0 130l2-36h1l-2 36zm-1701 306l-30-69-26-86-18-91-7-78h2l6 69 16 87 26 90 32 77zm1699-290l3-2-8 65-18 82-22 70-18 43h-1l28-76 20-74 12-65zm-129 385l23-38 23-47h2l-30 60-18 28zm-1554-62l-10-19h2l8 17zm75 120l-9-9-47-75h2l14 23 25 38 1 2zm1383 71l47-57 36-51h1l-34 50zm-1248 76l-37-32-39-40-53-63-6-12 59 72 76 74zm1104 50l62-47 80-77-43 46-33 30-41 34-25 16z"/>
		<path id="Path 1" class="s1" d="m1531 1756l11-7h1v2l-22 13zm-51 34l21-13 1 2-16 10zm-29 15l6-2 1 2-7 4-21 9zm-76 38l26-11-24 13-40 16-10 1 47-18zm-141 47l52-14-31 11zm-68 13l44-8-17 6zm-233 6l109 5 48-2 71-8-5 3-69 8-39 1-87-2z"/>
		<path id="Path 2" class="s2" d="m964 139l21-2h86l16 2 1 2-36-2-89 2zm-433 142l56-34 69-34 78-30 54-15 1 1-74 23-60 24-65 32-60 36-1-1 1-1zm839-75l1-1 39 16 55 28 82 54v1l-78-50zm-1207 577l20-66 34-80 32-60 44-68 54-68 59-62 60-52 44-31 1 1-65 49-44 40-60 64-50 64-38 59-38 72-30 71-22 68zm1734 53l-31-110-46-106-62-104-71-89h2l32 36 44 59 54 91 30 63 20 51 20 65 9 42zm17 127l-3-37 2 1 3 35zm-1782 11l2-1v102h-2l-1-2v-95zm1784 83v-65l2 1 1 5v50l-2 9zm-4 52l2-16h1v14zm-83 300l19-42h1l-18 42zm-1616-10l1-1 7 15h-2zm16 33v-2l21 38h-2zm1541 83l13-21v3l-12 18zm-1331 184v-1l81 62 40 26 18 8-1 3-33-18-38-26-48-36z"/>
		<path id="Path 3" class="s3" d="m510 296l19-13 1 1-19 13z"/>
		<path id="Path 4" class="s4" d="m971 299l41-3 51 1v8h-92zm-40 5l19-2 1 9h-18zm-305 48l13-21 26-21 26-5-11 24h-6l-3-4h-15l-17 18v10zm617-13l-16-2-2-10 18 6zm-493 25l27-13 2 10h-8l-6 5-12 3-3-1zm549-3v-6l26 12-4 4-8-1-12-5zm-689 33l4-15h5v12l-4 4zm845 55l1-2 47 38 50 55-14 1v-9l-4-6-11-8-35-38-5-1-28-22zm-969 21l21-12v7 20l-12 1v-9l-7-2zm42 61l19-16 4 10v8h-20zm361 261l2-14 5-3 12 18zm523 342l6-1 10 5-5 9-8 9-3-1zm-9 198l13-34h4l13 16-2 3h-11l-7 7-2 9zm-185 205l4-9 16-9 1 14zm-523 12v-13l69 28-1 5h-12l-4-4h-20l-2-9-9-1-8-6zm276 37l30-1 1 4-12 11-19 7zm388 56l1-5 6 3zm-148 10l11-10v8l-3 3zm-462 15l28-11-1 8h-5l-12 8h-9zm403 21l22-11 1 16-14 1-7-1zm-545 63l15-17 26-19 1 7-10 9v22h-28z"/>
		<path id="Path 5" class="s5" d="m1063 305v-8l48 5-1 16 7 14v5l-4 4h-32l-8-4-2-15-6-5zm-113-3l21-3v6 10l-9 6h-6l-5-10zm-97 20l24-7 2 14-9 8h-10zm-239 57l12-27 13 1 10 5 3 12 8 9h8l1 23h-16l-6-13v-7l-6-5-22 2zm139-10l12-3 6-5h8v12l-7 11-14-1-5-6zm-218 79l44-4v19l4 6-10 20-8 5v3l-14-6v-20l-9-9-7-2zm16 85v-8l24 2 2 10 6 6v8l-5 3-9-1-7-11zm988 8l14-1 14 18-16 8-4 6-13 1-8-9-1-10zm-1024 24v-10l7-6h9v6l-8 8zm1116 109l-8 1-5 6-16 7h-9l-7-8v-9l9-10v-17l21-5zm-1192-7l2-6h16l-2 8zm379 104l1-25-4-10 4-3v-18l-4-6v-14l23-2 4-4 21-1 8 27 9 28 16 32-5 3-2 14-43-11 5-49-8-7-12 2v36l-6 5v6zm-398-40l9-34 16 1 9 6 1 6-4 17-17 2-3 3zm1238 37l-22-1-1-30-4-19 14-4zm-612 22l5-20 26 1 2 4 8 2v14l-4 3-1 8h-4zm535 288l8-9h19l23 5-4 13 9 15 8 24 3 47-8 42-18 41-8-1-5-10-11-6 15-41 4-23v-27l-9-35-11-19zm-1106 115l-1-16h28l1 16zm936 140l2-9 7-7h11l2-3 17 10 18 4h19l27-7v8l12 19-3 2-31 8h-24l-38-10-5 9-14-12zm-41 62l14-24 19 3 5 7h5l-18 32zm-48 58l25-27 4 6 12 4 9 8-16 20-21 19-8-12v-15zm-630 115l3-19h13l8 6 9 1 2 9-4 2v14zm59 1h12l1-5 52 12-1 15 6 7v10l-70-17zm120 24l9-1 1-7 37 3 53-2v21l-39 9-55 2-3 20-8-4-5-7 2-27zm-94 63l31-11 9 16-4 16-4 4-14 3-12 13h-11l-5 12h-8l-6-10v-6l6-6v-15l12-8h5zm582-11l1 22 9 10 1 11-5 3-19-2-4 4-14-3-13-15v-14l4-3 1-6 19-7zm116 64h-14l-13-6-1-11 5-11 24 15zm-802-9l36-17 4 7 10 4 2 5-1 15h-3l-6 9h-20l-8-9-8-3zm488-6l14-1 6 9v11l-4 4h-9l-6-5zm290 111l-9-11-5-14-13-9 3-22-7-11v-7l5-10 8 1 6 5 4 5v37l6 4h13l21-22v-4l-7-4-3-6v-6l10-6h12l23 11 8 8 5 12-10 8-20 13-21 13-23 13zm-840-32v-20h28v26l8 10v11l-4 3-1 26-20-10 8-15 1-18z"/>
		<path id="Path 6" fill-rule="evenodd" class="s6" d="m1063 305l2 12 6 5 2 15 8 4h32l4-4v-5l-7-14 1-16 27 4 1 11 5 4h22l3-9 56 15 2 10 16 2 5 7 9 1 15 10 27 4 2 4 12 5 8 1 4-4 54 27 47 31-3 8 7 11 12 5h13l1 8 28 22 5 1 35 38 11 8 4 6v9l-14 13 1 10 8 9 13-1 4-6 16-8 22 30 27 51-21 5v17l-9 10v9l7 8h9l16-7 5-6 8-1 14 40-14 4 4 19 1 30 22 1 10 73-3 84-3 28-8 48-12 44-4 12-7 17-23-5h-19l-8 9-20-12-13-4h-32l-32 14-18 14-17 19-21 29-10-5-6 1v-88l-12-94-17-62-29-65-12-21-6-10v10l1 23-1 5h-5l-69-28-64-34-51-34-36-27 18 43 16 32 26 34-32-2-45-10-12-4 1-8 4-3v-14l-8-2-2-4-26-1-5 20-72-32-34-20-53-38-23-22-3-1 2 11-21 1-4 4-23 2v14l4 6v18l-4 3 4 10-1 25-40-19-50-35-39-38-32-43-16-28-24 36-18 32-21 40-22 46-11 32-21 63-10 48-8 47-6 67-1 92 3 66h-28l-3-109-23-41-18-47-13-53-6-48 8-2 4-63v-8l-4-5v-14l8-7v-30l4-6v-12l3-3 17-2 4-17-1-6-9-6-16-1 10-30 16 2 2-8 2-28-4-3 21-39 21-27 18 1 8-2 8-8v-22h20l11 9 7 11 9 1 5-3v-8l-6-6-2-10-24-2-4-10 21-14-3-4v-3l8-5 10-20-4-6v-19l24 1 1-26 6-25 5 1 4-4v-12l22-2 6 5v7l6 13h16l2 11 2-4 31-20 46-25v4l3 1v8l5 6 14 1 7-11v-12l-2-10 35-16 41-13 7 15h10l9-8-2-14 54-11 2 7h18l5 10h6l9-6v-10zm-424 48v-10l17-18h15l3 4h6l-8 24-4 26h-8l-8-9-3-12zm-132 112h22l6-5 7 2 9 9v20l-18-5-26-1zm318 309v-6l6-5v-36l12-2 8 7-5 49zm-133 794l-42-22-49-36-40-41-29-42-19-39-21-67-12-69-5-59h28l5 58 12 64 14 46 21 46 28 41 36 37 23 19 53 32v13zm822-247l39-24 24-26 20-32 11 6 5 10 8 1-24 39-32 31-39 22-12-19zm-130 50l19-39 8 1v12l14 12-12 24h-5l-5-7zm-37 55l23-31 25 18-23 31-9-8-12-4zm-81 74l33-25 23-22 5 3v15l8 12-22 20-36 24-10-14zm-48 37l21-4 8 8h8l1 18 7 25 35 24 44 21-3 3v13l-19 7-1 6-4 3v14l13 15 14 3 4-4 19 2 5-3-1-11-9-10-1-22v-3l7-2 39 16 47 25-5 11 1 11 13 6h14l8 4v12l-10 6v6l3 6 7 4v4l-21 22h-13l-6-4v-37l-4-5-6-5-8-1-5 10v7l7 11-3 22 13 9 5 14 9 11-21 13-29 14-26 11h-1v1l-47 18-41 14-52 14-24 5-44 8-5 1-71 8-48 2-109-5-88-13-67-16-64-20-72-31 1-26 4-3v-11l-8-10v-48l10-9-1-7 25-15 6 11 8 3 8 9h20l6-9h3l1-15-2-5-10-4-4-7 40-16 1 5h9v15l-6 6v6l6 10h8l5-12h11l12-13 14-3 4-4 4-16-9-16 26-12 4-23-17-2v-10l-6-7 1-15 55 8v9l-8 7-2 27 5 7 8 4-9 24-7 8 2 11 18 19 21 10 26 7 39 5h42l41-4 50-10 55-20 2 5 7 1 1 18 6 5h9l4-4v-11l-6-9-1-16 37-25 8 1 3-3v-8l19-20 4-9-17-33zm156 307l1-1v1zm-651-263v-14l4-2h20l4 4v22zm-145 213l15-25 3 4h15l20 13-1 18-8 15-41-21-4-1z"/>
		<path id="Path 7" class="s7" d="m617 644l24-36 16 28-21 9zm-39 72l21-40 6 3v12l-10 4v14l-8 8zm285-28l-2-11 3 1 23 22-12 15h-4zm266 64l-18-43 36 27zm-615 153l10-48 21-63 6 3v10l-4 3-4 44-4 3 4 36-12 12zm580-99l-3 11h-12l-1-15h4zm243 21l-1-23h6l12 21zm325 126l3-28h13l5 4v14l-10 10zm-24 104l4-12 7 2v8zm-210 81l21-29 4 3 2 9-2 10-7 3v4l-9 9-7 2-7-2zm98 210l39-22 2 15-4 4h-18l-10 12h-9l-3-7z"/>
		<path id="Path 8" class="s8" d="m1169 312l-3 9h-22l-5-4-1-11zm74 27v-6l56 22v6l-27-4-15-10-9-1zm212 110h-13l-12-5-7-11 3-8 30 22zm-948 9l28-10v12l-6 5h-22zm-12 28l-25 6 2-10 14-12 2 5 7 2zm2 78l11-15 20-18 3 2v16h-9l-7 6v10zm-56 97l14-31 4 3-2 28zm-30 218l-1-81 10-67 11 1v12l-4 6v30l-8 7v14l4 5v8l-4 63zm827 640l28-19 1 13 10 14-22 14h-8l-8-8zm-367 74v-9l10 1-1 7zm468 52v-13l3-3 18 8-1 5v3zm136 64l1-13 35 23 31 30-11 7-5-12-8-8-23-11h-12v-12zm-882 60l14-18 4 2v20h-15z"/>
		<path id="Path 9" fill-rule="evenodd" class="s9" d="m963 141l89-2 36 2 69 7 84 16 76 22 53 20 99 48 78 50 75 58 65 65 71 89 62 104 46 106 31 110 14 90 3 37 2 29v65l-2 36-2 16-4 43-12 65-20 74-28 76-19 42-23 47-23 38-13 21-36 51-47 57-2 2-80 77-62 47h-1l-31-30-35-23-24-15-47-25-39-16-6-3-18-8-44-21-35-24-7-25-1-18 22-14 36-24 22-20 21-19 16-20 23-31 18-32 12-24 5-9 38 10h24l31-8 3 7h9l10-12h18l4-4-2-15 32-31 24-39 18-41 8-42-3-47-8-24-9-15 4-13 7-17 11-2v-8l-7-2 12-44 8-48h11l10-10v-14l-5-4h-13l3-84-10-73-13-54-14-40-15-35-27-51-22-30-14-18-50-55-47-38-30-22-47-31-54-27-26-12-56-22-18-6-56-15-31-6-27-4-48-5-51-1-41 3-21 3-19 2-54 11-24 7-41 13-35 16-27 13-46 25-31 20-2 4-2-11-1-23 4-26 8-24 11-24-26 5-26 21-13 21-12 27-4 15-6 25-1 26-24-1-44 4-28 10-21 12-14 12-2 10 25-6 12-1 26 1 18 5 14 6 3 4-21 14-19 16-20 18-11 15-21 27-21 39-14 31-12 36-9 34-10 67 1 81 6 48 13 53 18 47 23 41 3 109 1 16 5 59 12 69 21 67 19 39 29 42 40 41 49 36 42 22 31 13 28 10 70 17 17 2-4 23-26 12-31 11-28 11-40 16-36 17-25 15-26 19-15 17-14 18-15 25-18-8-40-26-81-62-76-74-59-72-14-21-1-2-25-38-14-23-21-38-8-17-7-15-32-77-26-90-16-87-6-69v-102l8-87 22-102 22-68 30-71 38-72 38-59 50-64 60-64 44-40 65-49 19-13 60-36 65-32 60-24 74-23 87-19zm-346 503l19 1 21-9 32 43 39 38 50 35 40 19 7 3 21 7 43 11 19 1-12-18-16-32-9-28h4l12-15 53 38 34 20 72 32 32 12 1 15h12l3-11 45 10 32 2-26-34-16-32 18-16 51 34 64 34 69 28h5l1-5 17-2 29 65 17 62 12 94v109l3 1 8-9 7 2 7-2 9-9v-4l7-3 2-10-2-9-4-3 17-19 18-14 32-14h32l13 4 20 12 15 16 11 19 9 35v27l-4 23-15 41-20 32-24 26-39 24-27 7h-19l-18-4-17-10-13-16h-4l-13 34-19 39-14 24-23 31-25 27-23 22-33 25-28 19-16 9-4 9 10 43 17 33-4 9-19 20-11 10-37 25-22 11-55 20-50 10-41 4h-42l-39-5-26-7-21-10-18-19-2-11 7-8 9-24 3-20 55-2 39-9 19-7 12-11-1-4-30 1-53 2-37-3-10-1-55-8-52-12-69-28-53-32-23-19-36-37-28-41-21-46-14-46-12-64-5-58-1-16-3-66 1-92 6-67 8-47h17l12-12-4-36 4-3 4-44 4-3v-10l-6-3 11-32 22-46 9 1 8-8v-14l10-4v-12l-6-3z"/>
		<path id="Path 10" class="s10" d="m1336 804v-10l6 10z"/>
		<path id="Path 11" class="s3" d="m530 281h1v1h-1z"/>
		<path id="Path 12" class="s4" d="m1073 922l43-6 31 1-2 12h-58-11zm-380 5v-7l42 10 22 15 3 8-6 7-23-2-2-22-26-3-4-5zm-98 30l-28 7-3-2 3-12 22-18 34-11v12h-20l-6 3zm445 3h-11l-6-5 1-10 15-11zm-317 104l-6 1-11-12-8-3-1-8 14 6zm412-8l-7 2-13-8-3-3 1-5 12 4zm-70 15l6-13 14-12 2 23-16 2zm418 167l-4 15-10 3-6-6-2-13zm-629 195l-26-5-30-13-16-13-4-12 5-5h7l31 15 40 9v5l-6 4zm90-25l21-5v6l-5 3-16 1z"/>
		<path id="Path 13" class="s5" d="m1172 345l8 2 5 14-3 5-12 1-7-8 1-10h5zm-477 171l5 1 1 8-3 4-8-3-1-8zm823 71h15l6 4v28l-2 5-7 3h-17l-9-7 1-23zm-441 118l6 1 4 11-5 10-8-3-3-14zm98 247l2-31 13 2 24 10 22 18 4 11-3 3h-7l-29-9zm-520-2v-14l6-7 32-2 6 1 4 5v21zm433 4l-1-25h58l2 21zm-493 3l2-21 6-3h20l2 19zm476 114l16-2v22l-3 10-7 7-6 1zm390 166l1-26 10-32 13-22 20-20 19-9 23 1 15 12 6 17-16 1-4 5-8-7-11-1-12 5-10 9-15 27-9 41zm-398-100l9-4h11l11 18 25 2 4 12-12 6-22-3-16-13zm-384 33v-14l11-9 8 1 12 14-13 8zm156 56v-32l18 3 17 7 6 7v11l-11 10zm-50 63l6-4 1-24 11-1 6 12 9 7-7 7v13l-8 5-8-4zm42 24v-21l3-7 25 5 5 11-10 11zm175 76l27-16 11 1 6 8-1 11-7 8-32 16zm-95 23l37-4v5l-5 5 2 18-26 2-1-15-7-3z"/>
		<path id="Path 14" class="s6" d="m623 921l33-4 37 3v7l-32 2-6 7v14l-30 2-2-19zm522 8l2-12 30 4-2 31-28-2zm-106 5l34-12 3 7h11l1 25-48 6zm-336 20v-21l26 3 2 22zm382 92l13-6 15 2-1 5 3 3 13 8 7-2 7 8 8 19 2 34-11 31-14 16-4 1-4-12-25-2-11-18h-11l-9 4-5-24h7l6-4 6-1 7-7 3-10v-22zm-406 124l-13-6-10-10-9-16-5-17v-29l10-29 13-15 14-7 18 1 1 8 8 3 11 12 6-1 10 24 1 30-13 33-7 8-4 3-12-14-8-1-11 9zm869-6l4-5 16-1v10l-6 6-8-2zm-763 125l-13-28v-25l6-16 11-13 11-7 20-6h15v32l-19 2-10 8-4 9 1 15-11 1-1 24zm18 15l8-5v-13l7-7 12 6-3 7v21l-15-3zm162 99l37-14 4 28-30 12-35 7-2-18 5-5 16-1 5-3zm-111 30l1-15 6-4v-5l31 3v8h15l7 3 1 15h-34z"/>
		<path id="Path 15" class="s7" d="m714 1159l7-8 4 2v6l-2 2z"/>
		<path id="Path 16" class="s8" d="m870 397h14l15 6 22 19 17 2 4-3h35l16 8 8 7 2 8 2 39-10 10h-9l-9 8-12 1-7 7h-22l-4-11-5-3h-8l-6 6h-12l-12-23-16-1-6 13-48 42v69l-12 6-4 6h-6l-4-6-27-2-5-3-2-32 11-10 2-12 5-3v-13l6-4 2-16 8-7 1-6h10l13-12 14-6 10-13 7-2 3-13-10-10 2-34 5-4h13zm287 4h16l6 4 2 16-4 4h-7l-6-8-7-2-2-5zm-5 72h17l12 14 10 2h47l5 4 2 17 8 3 8 8 1 6 19 5 20 20v13l-11 4-13-20-19-1-6-10h-4l-6-7-15-8h-9l-4-5-21-5h-23l-7-10-10-2-9-12v-10zm-598 124l15 2 2 11-8 15-14 2-6-8v-7l4-3 2-9zm728 80h9l2 10-10 2zm220 84l19 3 20 20 1 12h10l26 18 2 26 15 14 4 15v20l-10 14h-13l-5-6v-19l-5-9h-29l-3-4-9-2-2-30-12-19v-11l-18-16v-8zm-88 30l19 1 30 36v24l-5 6 3 28-4 5-15 2-5-6-1-12-8-7-3-9v-13l10-5 2-19-2-4-21-4-3-15zm68 62h13l4 3v14l-5 11h-8l-7-9v-16zm-13 72l22 1 6 8v10l-6 5v16l-4 4h-8l-4-8-1-17-7-7zm87 4h21l10 7 2 14 10 8v21l-16 14-40-5-4-13v-30l11-14zm-498 184v-23l7-19h6v38l-6 4zm-151 307h-15v-8h15zm461 321l16 1 6 4 5 5v13l-9 12-20 1-3-21 3-2zm-44 4h15l2 5v9l-9 6-3 8-2 19-8 9h-12l-4-8v-11l8-17 2-13zm-249 70h6l4 5v7l-6 4v9l-11 3-5-6v-7z"/>
	</g>
</svg>