<svg version="1.2" xmlns="http://www.w3.org/2000/svg" viewBox="0 0 2048 2048" width="2048" height="2048">
	<title>20250604_1444_Boy with Circular Background_remix_01jwx3fpb0f5trnqehh5yc23gt (1)</title>
	<style>
		.s0 { opacity: .26;fill: #37454d } 
		.s1 { opacity: .27;fill: #fefefe } 
		.s2 { opacity: .7;fill: #fefefe } 
		.s3 { opacity: 1;fill: #4a5d65 } 
		.s4 { opacity: 1;fill: #465a62 } 
		.s5 { opacity: 1;fill: #485b62 } 
		.s6 { opacity: 1;fill: #43565e } 
		.s7 { fill: #fdfefe } 
		.s8 { fill: #fefefe } 
	</style>
	<g id="Background">
		<path id="Path 0" class="s0" d="m527 1823l-12-5-33-24 4 1zm957 22l42-24-34 22zm-834 42l-14-4-59-29-49-30zm764-7l59-29 1 2-47 24zm-93 36l76-28-1 3-29 12-76 26-71 18-36 4 19-4 68-15zm-155 38l-4 3-80 8h-104l-57-4-113-20-72-20-12-4-1-3 76 21 53 13 45 6 26 4 105 5h15 4l60-3z"/>
		<path id="Path 1" class="s1" d="m711 141l70-22 66-14 67-10 91-6h80l7 4h23l65 8 96 20 98 32 69 30 87 48 72 50 73 62 53 57-57-58-51-44-53-40-49-32-53-30-74-34-78-28-50-14-122-22-81-6h-72l-80 6-65 10-80 18-52 16zm-49 18l41-15v2l-40 14zm-438 369l41-63 61-74 83-80 71-53v1l-57 43-53 47-44 45-41 49-1 1-2 3zm1313 1284l57-38 84-73 76-83 68-94 48-86 36-85 30-97 20-100 9-103-2-99-11-89-24-104-38-107-36-75-62-99-64-80 42 47 41 57 47 78 31 64 28 73 24 82 16 80 10 96v94h-1v1l-11 105-28 120-36 100-28 60-24 43-68 100-37 45-45 48-71 64-60 46-21 12zm-1454-828l4-57 10-74 28-114 20-57 30-69 26-50 23-35-38 67-44 101-26 82-16 72-12 94-3 112 5 75 10 69 22 90 26 76 30 70 46 84 48 70 50 61 70 71 53 44 2 3-13-8-48-42-72-74-73-95-44-72-46-98-34-98-18-75-8-46-4-49-4-9z"/>
		<path id="Path 2" class="s2" d="m703 144l8-3v1l-8 4zm-223 114l42-29 49-28 91-42 1 1-101 49-82 50zm-33 1511l-2-3 14 8 1 5z"/>
		<path id="Path 3" fill-rule="evenodd" class="s3" d="m666 365l14-14 37-27 67-35 66-21 81-12 96-3 110 8 98 19 88 28 80 37 61 40 69 64 53 64 28 41 36 66 22 50 36 97v3l-13-2-55-17-11-5-2-3h-8l-2-5-5-1-5-12 2-9 8-9v-11l10-3 6-6v-15l-3-4-3-23v-26l-6-6h-24l-11 8-1 15 5 21 7 8 2 26-20 26v20l3 4 9 2 4 9 9 3 6 10-5 10-16 10-28-2-8-9-13-2-15-16-43-3-2-3-29-7-7-5-14-1-18-8-34-8-17-14-17-4-8-6h-7l-9-10-10-1-10-7-42-4-3-5-19-5h-42l-25 19-19 1-19-7-6-6-12-3-11-9h-8l-14-7-20 4-4 4-1 14 6 7 26 3 14 16 44 6 10 6-1 7-15 22-2 24-43-18-77-39-25-13 11 25 33 61v3h-3l-22-4v-15l-8-9-9-21-6-6-2-9-7-4-2-7-16-13-7-1-35-42-11-2-12-8-4-7-12-5-4-14 4-13 31 2 14 14v16l4 4h6l5-5v-12l8-7 8 1 5 7h58l13 4h34l10-3 11 7h20l10 8 23 4h51l8-8-2-13-17-1-5-6 2-28 8-11 11-8 3-10v-14l-9-9h-110l-17 11v21l9 6 2 10 23 20v4l-3 2-32-2-19-7-8-7-8-14v-17l-16-7-8-14-2-29-4-9 3-24 15-12 4-11 6-5 17-3 6-5 19 2 7 6 19 4 62-2 22 2 25 7 11 8 5 7 1 9-4 11v27l5 9h7l6 8-6 11 3 23 10 12h26l10-9h14l11 18-7 11-20 18-32 2-3 3 1 13 13 6 2 4 31 2 3 4h20l6-5h6l11 5 5 8 14 4 7 8h25l3-4h15l13 9 17 25 17 3 9 7 16-4 27 1 6 9 12 3 13 11 8-1 11-11 9-2v-12l8-4v-25l-6-7-1-8-9-6h-11l-12 13h-5l-3-7-12-3-5-13v-33l-13-8h-24l-5-7-6-27-10-13-9-3-15-13h-11l-16-14-13-1-8-4-2-5-7-3-14-14h-4l-3-5h-6l-15-11-22-4-11-14-13-5-3-12-8-2-10-8h-8l-3-4-8-1-1-13-4-5v-19l14-8 34-2 10-6-2-13-25-18-12-3-2-13 8-7h15l9 8h15l4-6v-9l-11-9-6-1-4-6-13-5-2-4-29 2-10-6h-52l-4 5-24 3-3 4v12l-16 10-121 2-9-5-2-5-13-3 1-9 54-1 36 3 10-8 1-9-3-4-32-3h-45l-3 5-5 1-44 2-6 7-9 3h-10l-6-6h-15l-8 6-10 2-1 5 3 5 25 5-1 10-7 2-4 5h-31l-28 11-14 1-6 7-16 5-14-1-1-8 14-15 8-2 2-5-2-9-59-4-3 3v9l5 5 1 10-5 10-10 6h-7l-14-7h-8l-5 22-5 6h-14l-4 4-3 16-10 8h-5l-4-5v-20l8-7v-16zm-71-14l8 2 23-4-2 59h-3l-6 9h-10l-2 4h-7l-9 5-8 8v10l-5 7-12 2-6 9-7 3v8l-6 7-11 1-5 4 3 21-3 5-12 6-20-4v-19l12-15-1-8 26-20 19-9-6-6-31-11 1-17 3-3 18-1 2-6 45 12 3-33zm-180 247l25-51 23-31 20 1v18l-8 16v20l-14 20-2 8-7 6h-17zm351 39l-9-6-1-7 1-15 6-18v-16l-7-7 3-12 3-3h29l28 9 2 7-3 12-11 9v13l-4 5v7l4 5 1 17 24 21 1 11-8 7-1 7-23-21-21-25-10-14zm-367 3l6-17 11 7-1 6-7 6zm-21 89l11-56 15 2 15 13 8 43-14 10h-15l-15-12zm833 60v-39l-5-14-1-15-13-11-1-7 7-8h5l14 16 21 45 10 18 19 22h-17zm-475-59l-12-6-1-20 7-7 17 3zm507-3l9-16 17-2 7-7 6-1 32 18 21 5 8 8 39 13 4 6 19 4 11 23 19 5 24 26v8l-38-9-68-24-61-28-43-25zm379 175l-11-3-6-16 3-7v-30l7-8 2-12 5-5h11l-3 38zm-1253-33l13-2 4 6 8 2 12 17v10l-3 2v33l5 3 7 15v16l6 16-1 28 11 12 16 2 7 11-19 13-22 27-11 25-6 34 2 40 10 41 18 37 26 32 30 23 30 13 28 5 52-2 4 2 41 81 37 49 50 48 44 32 34 20 70 32 83 25 95 15 69 2 50-4 56-10 55-16 46-19 40-22 35-25 39-36 23-27 21-31 20-38 17-46 9-36 8-57 4-81 14-149 33-1 14 11 13 23 8 28 4 32-4 62-8 34-9 22-3-3h-16l-2-4h-5l11-31 8-50-2-54-6-23-7-11-17 187 2 4 8-15 12 7 13 3-17 31-22 22-8 46-19 55-27 52-26 36-31 34-49 42-43 27-56 25-59 19v5l4 4 25 12 180 90 44 26 38 28v3l-3 2-8 4-42 24-11 6-59 29-17 8-76 28-1-9-19-18-2-16-8-5-4-11 8-8h16l10-8 4-35 10-13 1-7 35-1 13-13 1-9-36-2-5-3-1-11-10-11-10-5h-8l-11-13-28-1-3 3v8l-5 8-5 2-1 6-15 10 5 15 6 6h7l18 9 4 12-2 15-14 8-2 23-18 9-9 9-4 12-25 9-5 6h-14l-16 8-11 11v8l12 15 14 6 4 5h5l1 7-19 4-18 3-59 6v-10l-8-9-2-15-14-13h-24l-5-10-15-8-5-8v-5l13-3 10-10v-7l-12-15-2-14 2-14 50-2 40-8 41-17 23-16 22-23 15-30v-11l-11-9-8-15-1-34-48 8-47 3-60-1-83-10-48-10-60-18-61-26-37-21-11 42-13 23-16 19 6 13 19 25 23 23 28 22 51 29 58 23 64 15v16l-4 12 2 50-8 9v37l15 16h53l8 4v6h-19l-105-5-3-25 3-2 4-23-10-9-6-14v-4l12-11v-10l-4-3-38-2-9-5-11-14-14-7h-19l-17-8h-39l-5 5-2 9h-9l-7 4-10-13-30-15-10-14h-35l-9 4h-16l-7 6h-17l-4-5-12-5v-21l-4-4-21-1-10 3-5 6v14l2 4 5 1 2 8 7 8 14 6 14 17h4l15 16 25 4 2 3 19 1 4 3 8 9-1 24-29-11-122-63-1-1-41-28 1-33-4-3 64-39 102-54 60-41 9-1 6 4 16-34 2-33-48-36-55-57-37-53-27-57h-46l-49-14-38-25-22-22-21-29-20-44-11-53v-36l6-34 11-28 12-17-15-66-10-71h7l8-6v-12l-4-5h-13zm1189 107l1-81 11 4 9 12v53l-11 10zm-1029 74l5-13 12 1 5 7 8 4h16l12-14v-21l12-9v-12l-4-5 7-1 11-9h10l-2 63-28 1-10 13v27l10 9 27 2-1 50-4 5h-5l-41-60-23-25zm270 885v-27l8-10 40 1 13 8 21 2 9 6v12l5 5 2 8v14l-45-6z"/>
		<path id="Path 4" class="s4" d="m514 425l-60-8 36-17 18-3 30 1-2 6-18 1-3 3zm-51 91l13-18 30-27 1 8-12 15v19l-11 1-1 3zm-94 319l4-72h6l4 6-4 4-2 57-2 5zm1209 413l3-7h5l2 4h16l3 3-4 10-13-3z"/>
		<path id="Path 5" fill-rule="evenodd" class="s5" d="m666 365l5 4v16l-8 7v20l4 5h5l10-8 3-16 4-4h14l5-6 5-22h8l14 7h7l10-6 5-10-1-10-5-5v-9l3-3 59 4 2 9-2 5-8 2-14 15 1 8 14 1 16-5 6-7 14-1 28-11h31l4-5 7-2 1-10-25-5-3-5 1-5 10-2 8-6h15l6 6h10l9-3 6-7 44-2 5-1 3-5h45l32 3 3 4-1 9-10 8-36-3-54 1-1 9 13 3 2 5 9 5 121-2 16-10v-12l3-4 24-3 4-5h52l10 6 29-2 2 4 13 5 4 6 6 1 11 9v9l-4 6h-15l-9-8h-15l-8 7 2 13 12 3 25 18 2 13-10 6-34 2-14 8v19l4 5 1 13 8 1 3 4h8l10 8 8 2 3 12 13 5 11 14 22 4 15 11h6l3 5h4l14 14 7 3 2 5 8 4 13 1 16 14h11l15 13 9 3 10 13 6 27 5 7h24l13 8v33l5 13 12 3 3 7h5l12-13h11l9 6 1 8 6 7v25l-8 4v12l-9 2-11 11-8 1-13-11-12-3-6-9-27-1-16 4-9-7-17-3-17-25-13-9h-15l-3 4h-25l-7-8-14-4-5-8-11-5h-6l-6 5h-20l-3-4-31-2-2-4-13-6-1-13 3-3 32-2 20-18 7-11-11-18h-14l-10 9h-26l-10-12-3-23 6-11-6-8h-7l-5-9v-27l4-11-1-9-5-7-11-8-25-7-22-2-62 2-19-4-7-6-19-2-6 5-17 3-6 5-4 11-15 12-3 24 4 9 2 29 8 14 16 7v17l8 14 8 7 19 7 32 2 3-2v-4l-23-20-2-10-9-6v-21l17-11h110l9 9v14l-3 10-11 8-8 11-2 28 5 6 17 1 2 13-8 8h-51l-23-4-10-8h-20l-11-7-10 3h-34l-13-4h-58l-5-7-8-1-8 7v12l-5 5h-6l-4-4v-16l-14-14-31-2-4 13 4 14 12 5 4 7 12 8 11 2 35 42 7 1 16 13 2 7 7 4 2 9 6 6 9 21 8 9v15l-51-13-53-24-42-26-41-35 1-7 8-7-1-11-24-21-1-17-4-5v-7l4-5v-13l11-9 3-12-2-7-28-9h-29l-3 3-3 12 7 7v16l-6 18-1 15 1 7 9 6-1 6-18 57-17-3-7 7 1 20 12 6-36 82-43 76-24 36-7 8-3 46h-10l-11 9-7 1 4 5v12l-12 9v21l-12 14h-16l-8-4-5-7-12-1-5 13-17-10-19-6h-20l-19 6-7-11-16-2-11-12 1-28-6-16v-16l-7-15-5-3v-33l3-2v-10l-12-17-8-2-4-6-13 2v-34h6l2-5 2-57 4-4-4-6h-6l5-34h5l15 12h15l14-10-8-43-15-13-15-2 10-33 9 2 7-6 1-6-11-7 10-25 20 7h17l7-6 2-8 14-20v-20l8-16v-18l1-3 11-1 20 4 12-6 3-5-3-21 5-4 11-1 6-7v-8l7-3 6-9 12-2 5-7v-10l8-8 9-5h7l2-4h10l6-9h3zm-71-14l9-20 12-14 16 3-6 29-23 4zm542 415l2-24 15-22 1-7-10-6-44-6-14-16-26-3-6-7 1-14 4-4 20-4 14 7h8l11 9 12 3 6 6 19 7 19-1 25-19h42l19 5 3 5 42 4 10 7 10 1 9 10h7l8 6 17 4 17 14 34 8 18 8 14 1 7 5 29 7 2 3 43 3 15 16 13 2 8 9 28 2 16-10 5-10-6-10-9-3-4-9-9-2-3-4v-20l20-26-2-26-7-8-5-21 1-15 11-8h24l6 6v26l3 23 3 4v15l-6 6-10 3v11l-8 9-2 9 5 12 5 1 2 5h8l2 3 2 11 2 64h-11l-5 5-2 12-7 8v30l-3 7 6 16 11 3-14 56-16 47-3 31-33 1 2-61 10-2 11-10v-53l-9-12-11-4-3-62-40-4-57-12v-8l-24-26-19-5-11-23-19-4-4-6-39-13-8-8-21-5-32-18-6 1-7 7-17 2-9 16-26-16-14-16h-5l-7 8 1 7 13 11 1 15 5 14v39l-30-7zm-767 130h13l4 5v12l-8 6h-7zm250 197l-27-2-10-9v-27l10-13 28-1zm583 854l-1-7h-5l-4-5-14-6-12-15v-8l11-11 16-8h14l5-6 25-9 4-12 9-9 18-9 2-23 14-8 2-15-4-12-18-9h-7l-6-6-5-15 15-10 1-6 5-2 5-8v-8l3-3 28 1 11 13h8l10 5 10 11 1 11 5 3 36 2-1 9-13 13-35 1-1 7-10 13-4 35-10 8h-16l-8 8 4 11 8 5 2 16 19 18 1 9-50 16zm-744-173l24-15 4 3-1 33-4-1-22-15zm220 124l1-24-8-9-4-3-19-1-2-3-25-4-15-16h-4l-14-17-14-6-7-8-2-8-5-1-2-4v-14l5-6 10-3 21 1 4 4v21l12 5 4 5h17l7-6h16l9-4h35l10 14 30 15 10 13 7-4h9l2-9 5-5h39l17 8h19l14 7 11 14 9 5 38 2 4 3v10l-12 11v4l6 14 10 9-4 23-3 2 3 25-26-4v-14l-2-8-5-5v-12l-9-6-21-2-13-8-40-1-8 10v27l-76-21zm368 65v-6l-8-4h-53l-15-16v-37l8-9-2-50 4-12v-16l64 6-2 14 2 14 12 15v7l-10 10-13 3v5l5 8 15 8 5 10h24l14 13 2 15 8 9v10z"/>
		<path id="Path 6" class="s6" d="m616 317l9-11 19-13-12 27z"/>
		<path id="Path 7" class="s7" d="m766 637l4-14 10 14h-5l-4 6h-6zm237 84l-11-25 25 13zm235 35l-21-45 26 16 6 4-2 18zm393 1l-2-11 11 5zm-998 167l24-36 6 7v18l-12 12zm642 744l-25-12-4-4v-5l59-19v11l-16 2-2 16z"/>
		<path id="Path 8" fill-rule="evenodd" class="s8" d="m711 142l52-16 80-18 65-10 80-6h72l81 6 122 22 50 14 78 28 74 34 53 30 49 32 53 40 51 44 57 58 64 80 62 99 36 75 38 107 24 104 11 89 2 99-9 103-20 100-30 97-36 85-48 86-68 94-76 83-84 73-57 38-38-28-44-26-180-90 12-11 2-16 16-2v-11l56-25 43-27 49-42 31-34 26-36 27-52 19-55 8-46 22-22 17-31 4-10 9-22 8-34 4-62-4-32-8-28-13-23-14-11 3-31 16-47 14-56 8-43 3-38-2-64 9-6 55 17 13 2v-3l-36-97-22-50-36-66-28-41-53-64-69-64-61-40-80-37-88-28-98-19-110-8-96 3-81 12-66 21-67 35-37 27-14 14-42 43 2-59 6-29 12-27-19 13-9 11-12 14-9 20-9 26-3 33-45-12-30-1-18 3-36 17 60 8 31 11 6 6-19 9-26 20-30 27-13 18-23 31-25 51-10 25-6 17-10 33-11 56-5 34-4 72v34l1 27 2 23 10 71 15 66-12 17-11 28-6 34v36l11 53 20 44 21 29 22 22 38 25 49 14h46l27 57 37 53 55 57 48 36-2 33-16 34-6-4-9 1-60 41-102 54-64 39-24 15-14-8-53-44-70-71-50-61-48-70-46-84-30-70-26-76-22-90-10-69-5-75 3-112 12-94 16-72 26-82 44-101 38-67 58-81 2-3 1-1 41-49 44-45 53-47 57-43 82-50 101-49 40-14zm54 501h6l4-6h5l21 25 23 21 41 35 42 26 53 24 51 13 22 4h3v-3l-33-61 14-12 77 39 43 18 44 16 30 7 39 7h17l-19-22-10-18 9-7 2-18 43 25 61 28 68 24 38 9 57 12 40 4 3 62-1 81-2 61-14 149-4 81-8 57-9 36-17 46-20 38-21 31-23 27-39 36-35 25-40 22-46 19-55 16-56 10-50 4-69-2-95-15-83-25-70-32-34-20-44-32-50-48-37-49-41-81-4-2-52 2-28-5-30-13-30-23-26-32-18-37-10-41-2-40 6-34 11-25 22-27 19-13 19-6h20l19 6 17 10 17 13 23 25 41 60h5l4-5 1-50 1-52 2-63 3-46 7-8 18 1 12-12v-18l-6-7 43-76 36-82 11-30zm813 605l-8 15-2-4 17-187 7 11 6 23 2 54-8 50-11 31zm-597 565l-64-15-58-23-51-29-28-22-23-23-19-25-6-13 16-19 13-23 11-42 37 21 61 26 60 18 48 10 83 10 60 1 47-3 48-8 1 34 8 15 11 9v11l-15 30-22 23-23 16-41 17-40 8-50 2z"/>
		<path id="Path 9" class="s0" d="m1965 1071h1v1h-1z"/>
		<path id="Path 10" class="s2" d="m284 443h1v1h-1z"/>
		<path id="Path 11" class="s3" d="m1094 363l30 2 7 4v12l-9 7-28-3-4-10 1-10zm-440 68l12 3 5 9-4 12-6 7-27 22-29 8-4-5 1-7 15-13v-3l7-7 12-5zm219 38l8 2 3 7-23 22-13 1-8 4-12 12h-22l-6 4-32-2-7-8 2-13 8-2 8-7 24-2 6-4h17l5-6h14l3-4h22zm-255 48h43l10 7-1 10-22 19-8 2-28-2-5 4v22l-6 4v12l-9 12-30 20-3 7-2 29-14 13-3 14-13 17h-8l-4-4v-36l-4-4v-6l4-5 2-24 11-10 1-6 12-13 11-7 5-14 13-8 10-15h5l7-7 10-21zm54 46l16 1 2 12-3 11-5 5-15 1-3-6 3-4v-17zm-120 134h11l4 3 7 14v10l-3 2v15l-4 6-2 20-5 4h-6l-8-5-5-21 4-9v-18l4-3v-15zm-106 182l20 5 5 9h12l5-6 17 1 4 12 3 51 10 6h20l4-4 19 2 6 18-17 16-13 2-3 4h-15l-4 4-15-2-13-15-21-9-3-3v-38l-9-4-4-11-5-5h-5l-2-4-3-26zm409 27l19-4 43-2 1 11 7 11v11l-70 3zm538 32v-7l-4-2v-15l30-1 3-6 38 8 29 12 7 7-1 10-10 2-37-6zm-101 1l13-12 39-15v7l4 2 3 8 1 12-46 9-13-1 2-8zm-331-4l-2-14 4-4 24 1 11 6 1 16zm-78 125l7-13 13-11 15-5 17 1 16 8 10 10 9 16 5 18-1 37-11 27-8 10-22 12-21-1-14-9 3-3-2-20 21 8 15-2 7-7 1-9 7-7 1-18-13-9h-9l-7 7h-7l-5-4-8-26-6-6zm434 11h7l9-17 16-12 26 1 3-5 10 6 10 16 7 26v26l-12-1-7-6h-26l-9 5v19l4 3v13l6 6-2 19h-9l-14-7-12-13-7-13-6-26 1-25zm-850 31l24-3 17 6 20 18 12 17 16 32 19 60-2 11-6 4-6 1-10-6-12-35-5 38-4 6-9 1-7-6-3-10 3-32 14-27-21-38-11-10-9-3h-11l-5 1-4-8zm720 115l1-6 13-4v-6l18 1 16 5 23 17 11 26-3 30-11 18-21 15-26 6-14-3-6-7 1-12 6-4 16-1 18-8 11-14 2-16-6-14-15-10-7-2-27 2zm-132 199l61 12 55 1 41-5 43-14v6l5 3v7l4 4-6 6-28 12-23 6-36 4-64-2-64-14v-16l8-3z"/>
		<path id="Path 12" class="s4" d="m963 917v-12l32 9 25 14 2 9-5 5-18-2-1-16-11-6zm-164 7l31-13 25-5v30l-55 6zm494 25l-4-3 3-7 3 2zm24 122l7-17 15-16 14-6h13l12 6-3 5-26-1-16 12-9 17zm-436 65l18 1 2 20-3 3-10-9zm292 81l2-7 5-4 21-5v6l-13 4-1 6zm-130 225l-29-10-22-12-11-10-1-13 7-6h7l20 11 41 14-4 7-8 3zm221-12l-4-4v-7l-5-3v-6h6l7 8-1 10z"/>
		<path id="Path 13" class="s5" d="m1421 421h32l8 5 8 10 5 13h10l12 8 10 24 12 1 15 16v33l-6 6h-15l-6-15-19-18v-7l-5-3-2-8-11-6-6-9-11-4-2-6-13-14h-6l-9-8-3-4zm111 174l14 1 1 7 6 8 8 4v4l-6 10h-9l-13-14zm-555 50l32 1 11 7 15 15 1 8 7 2 10 10v13l-4 4h-15l-11-16h-15l-8-8-13-4h-17l-5-6v-16zm-52 288v-11l-7-11-1-11 46 5v12l-4 4 2 14zm419-21l29-6 49 1-3 6-30 1v15l4 2v7l-41 3-1-12-3-8-4-2zm-463 224l-7-22v-29l9-25 13 4 6 6 8 26 5 4h7l7-7h9l13 9-1 18-7 7-1 9-7 7-15 2-21-8zm478 34l2-19-6-6v-13l-4-3v-19l9-5h26l7 6 12 1-6 27-10 17-15 12zm-679 519h15l8 12 28 1 8 12v33l-10 22-10 8h-12l-8 4h-37l-3-4v-17l5-6v-11l-14-2-5-7v-6l10-5 12-16v-5l5-1zm529 120h10l4 3v14l-26 27-31 4-6 7-10 1-3 4h-23l-5-6v-21l11-11 9-2 13 7 35 1 4-8v-11zm-104 92h24l4 4v14l-9 6h-13l-8-7z"/>
		<path id="Path 14" class="s6" d="m800 942l-12 1-4-3 1-7 14-9zm-329 185l-12 3-6-8 3-14 11-6v17zm716 103l-10-2-4-11h14z"/>
		<path id="Path 15" class="s7" d="m476 1126h11l-2 5h-8zm58 119l5-38 12 35z"/>
	</g>
</svg>